<svg width="24" height="24" viewBox="0 0 24 24" fill="none" xmlns="http://www.w3.org/2000/svg">
  <rect x="4" y="4" width="4" height="4" fill="white" opacity="0.8"/>
  <rect x="8" y="4" width="4" height="4" fill="white" opacity="0.4"/>
  <rect x="12" y="4" width="4" height="4" fill="white" opacity="0.6"/>
  <rect x="16" y="4" width="4" height="4" fill="white" opacity="0.9"/>
  <rect x="4" y="8" width="4" height="4" fill="white" opacity="0.5"/>
  <rect x="8" y="8" width="4" height="4" fill="white" opacity="0.7"/>
  <rect x="12" y="8" width="4" height="4" fill="white" opacity="0.3"/>
  <rect x="16" y="8" width="4" height="4" fill="white" opacity="0.6"/>
  <rect x="4" y="12" width="4" height="4" fill="white" opacity="0.9"/>
  <rect x="8" y="12" width="4" height="4" fill="white" opacity="0.5"/>
  <rect x="12" y="12" width="4" height="4" fill="white" opacity="0.8"/>
  <rect x="16" y="12" width="4" height="4" fill="white" opacity="0.4"/>
  <rect x="4" y="16" width="4" height="4" fill="white" opacity="0.6"/>
  <rect x="8" y="16" width="4" height="4" fill="white" opacity="0.9"/>
  <rect x="12" y="16" width="4" height="4" fill="white" opacity="0.5"/>
  <rect x="16" y="16" width="4" height="4" fill="white" opacity="0.7"/>
</svg>
